<?xml version="1.0" encoding="utf-8"?>
<svg viewBox="0 0 500 500" width="344px" height="75675px" xmlns="http://www.w3.org/2000/svg">
  <g>
    <path class="st0" d="M 432.787 493.869 C 432.108 456.889 418.667 423.021 396.748 396.293 C 385.317 452.128 336.266 493.869 276.741 493.869 C 239.38 493.869 205.56 477.392 182.191 451.396 L 182.97 493.869 L 25.296 497.759 C 22.771 359.726 135.793 244.355 273.705 244.355 C 411.616 244.355 523.847 355.836 526.37 493.686 L 432.783 493.686 L 432.787 493.869 Z M 59.868 462.563 L 151.076 462.563 L 149.362 368.834 C 148.914 344.485 155.642 321.785 167.375 302.38 C 109.363 334.966 68.496 393.548 59.868 462.563 Z M 272.557 275.288 C 220.907 275.288 179.551 317.209 180.5 369.017 C 181.448 420.824 224.155 462.563 275.985 462.563 C 327.816 462.563 368.807 420.641 367.865 369.2 C 357.095 361.145 345.435 354.554 332.886 349.429 C 335.017 355.652 336.599 362.061 336.725 369.017 C 337.373 404.349 309.847 431.442 275.415 431.442 C 240.984 431.442 212.452 403.617 211.818 369.017 C 211.185 334.417 238.514 306.592 273.13 306.592 C 365.986 306.592 444.329 374.143 460.783 462.563 L 492.467 462.563 C 475.513 356.751 382.629 275.288 272.557 275.288 Z M 305.591 369.017 C 305.275 351.809 291.101 337.896 273.886 337.896 C 256.668 337.896 243.005 351.809 243.318 369.017 C 243.635 386.224 257.81 400.138 275.023 400.138 C 292.242 400.138 305.906 386.224 305.591 369.017 Z" style="fill: rgb(0, 69, 125);" transform="matrix(-0.977233, 0.212169, -0.212169, -0.977233, 624.071873, 675.147304)"/>
    <path d="M 357.358 188.911 L 383.665 188.911 L 383.665 199.236 L 339.008 199.236 L 339.008 191.436 L 364.321 161.658 L 339.753 161.658 L 339.753 151.289 L 382.868 151.289 L 382.868 158.867 L 357.358 188.911 Z" style="fill: rgb(0, 69, 125); white-space: pre;" transform="matrix(0.993499, 0.11384, -0.11384, 0.993499, 22.300896, -39.995183)"/>
    <path d="M 393.181 115.713 L 425.651 115.713 L 425.651 128.457 L 370.533 128.457 L 370.533 118.831 L 401.775 82.076 L 371.454 82.076 L 371.454 69.28 L 424.666 69.28 L 424.666 78.632 L 393.181 115.713 Z" style="fill: rgb(0, 69, 125); white-space: pre;" transform="matrix(0.956288, -0.292427, 0.292427, 0.956288, -11.510363, 120.734618)"/>
    <path d="M 298.281 76.979 L 341.899 76.979 L 341.899 94.098 L 267.854 94.098 L 267.854 81.166 L 309.826 31.792 L 269.09 31.792 L 269.09 14.599 L 340.58 14.599 L 340.58 27.164 L 298.281 76.979 Z" style="fill: rgb(0, 69, 125); white-space: pre;" transform="matrix(0.982697, 0.185219, -0.185219, 0.982697, 15.341578, -55.528558)"/>
  </g>
</svg>